# Blender v2.79 (sub 0) OBJ File: 'hendel.blend'
# www.blender.org
mtllib hendel.mtl
o Cylinder
v -1.651291 5.251983 -0.219542
v 1.622204 5.251983 -0.219542
v -1.651291 5.222720 -0.215115
v 1.622204 5.222720 -0.215115
v -1.651291 5.194581 -0.202004
v 1.622204 5.194581 -0.202004
v -1.651291 5.168648 -0.180712
v 1.622204 5.168648 -0.180712
v -1.651291 5.145917 -0.152059
v 1.622204 5.145917 -0.152059
v -1.651291 5.127263 -0.117145
v 1.622204 5.127263 -0.117145
v -1.651291 5.113401 -0.077312
v 1.622204 5.113401 -0.077312
v -1.651291 5.104866 -0.034091
v 1.622204 5.104866 -0.034091
v -1.651291 5.101983 0.010858
v 1.622204 5.101983 0.010858
v -1.651291 5.104866 0.055807
v 1.622204 5.104866 0.055807
v -1.651291 5.113401 0.099028
v 1.622204 5.113401 0.099028
v -1.651291 5.127263 0.138862
v 1.622204 5.127263 0.138862
v -1.651291 5.145917 0.173776
v 1.622204 5.145917 0.173776
v -1.651291 5.168648 0.202429
v 1.622204 5.168648 0.202429
v -1.651291 5.194581 0.223720
v 1.622204 5.194581 0.223720
v -1.651291 5.222720 0.236831
v 1.622204 5.222720 0.236831
v -1.651291 5.251983 0.241258
v 1.622204 5.251983 0.241258
v -1.651291 5.281247 0.236831
v 1.622204 5.281247 0.236831
v -1.651291 5.309386 0.223720
v 1.622204 5.309386 0.223720
v -1.651291 5.335319 0.202429
v 1.622204 5.335319 0.202429
v -1.651291 5.358049 0.173775
v 1.622204 5.358049 0.173775
v -1.651291 5.376704 0.138861
v 1.622204 5.376704 0.138861
v -1.651291 5.390565 0.099028
v 1.622204 5.390565 0.099028
v -1.651291 5.399101 0.055807
v 1.622204 5.399101 0.055807
v -1.651291 5.401983 0.010858
v 1.622204 5.401983 0.010858
v -1.651291 5.399101 -0.034091
v 1.622204 5.399101 -0.034091
v -1.651291 5.390565 -0.077312
v 1.622204 5.390565 -0.077312
v -1.651291 5.376703 -0.117146
v 1.622204 5.376704 -0.117146
v -1.651291 5.358049 -0.152059
v 1.622204 5.358049 -0.152059
v -1.651291 5.335319 -0.180713
v 1.622204 5.335319 -0.180713
v -1.651291 5.309385 -0.202004
v 1.622204 5.309385 -0.202004
v -1.651291 5.281247 -0.215115
v 1.622204 5.281247 -0.215115
v 0.320063 0.167399 -0.113340
v 0.320063 5.218859 -0.113340
v -0.341553 0.167399 -0.113340
v -0.341553 5.218859 -0.113340
v 0.320063 0.167399 0.133931
v 0.320063 5.218859 0.133931
v -0.341553 0.167399 0.133931
v -0.341553 5.218859 0.133931
vn 0.0000 -0.1496 -0.9887
vn 0.0000 -0.4223 -0.9064
vn 0.0000 -0.6345 -0.7729
vn 0.0000 -0.7834 -0.6215
vn 0.0000 -0.8820 -0.4712
vn 0.0000 -0.9445 -0.3286
vn 0.0000 -0.9811 -0.1938
vn 0.0000 -0.9980 -0.0640
vn 0.0000 -0.9980 0.0640
vn 0.0000 -0.9811 0.1938
vn 0.0000 -0.9445 0.3286
vn 0.0000 -0.8820 0.4712
vn 0.0000 -0.7834 0.6215
vn 0.0000 -0.6345 0.7729
vn 0.0000 -0.4223 0.9064
vn 0.0000 -0.1496 0.9887
vn 0.0000 0.1496 0.9887
vn 0.0000 0.4223 0.9064
vn 0.0000 0.6346 0.7729
vn 0.0000 0.7834 0.6215
vn 0.0000 0.8820 0.4712
vn -0.0000 0.9444 0.3287
vn -0.0000 0.9811 0.1937
vn 0.0000 0.9980 0.0640
vn 0.0000 0.9980 -0.0640
vn 0.0000 0.9811 -0.1937
vn -0.0000 0.9444 -0.3287
vn -0.0000 0.8820 -0.4712
vn 0.0000 0.7834 -0.6215
vn 0.0000 0.6345 -0.7729
vn 1.0000 -0.0000 0.0000
vn 0.0000 0.4223 -0.9064
vn 0.0000 0.1496 -0.9887
vn -1.0000 -0.0000 0.0000
vn 0.0000 0.0000 1.0000
vn -0.0000 0.0000 -1.0000
vn 0.0000 1.0000 0.0000
vn 0.0000 -1.0000 0.0000
usemtl Material.002
s off
f 1//1 2//1 4//1 3//1
f 3//2 4//2 6//2 5//2
f 5//3 6//3 8//3 7//3
f 7//4 8//4 10//4 9//4
f 9//5 10//5 12//5 11//5
f 11//6 12//6 14//6 13//6
f 13//7 14//7 16//7 15//7
f 15//8 16//8 18//8 17//8
f 17//9 18//9 20//9 19//9
f 19//10 20//10 22//10 21//10
f 21//11 22//11 24//11 23//11
f 23//12 24//12 26//12 25//12
f 25//13 26//13 28//13 27//13
f 27//14 28//14 30//14 29//14
f 29//15 30//15 32//15 31//15
f 31//16 32//16 34//16 33//16
f 33//17 34//17 36//17 35//17
f 35//18 36//18 38//18 37//18
f 37//19 38//19 40//19 39//19
f 39//20 40//20 42//20 41//20
f 41//21 42//21 44//21 43//21
f 43//22 44//22 46//22 45//22
f 45//23 46//23 48//23 47//23
f 47//24 48//24 50//24 49//24
f 49//25 50//25 52//25 51//25
f 51//26 52//26 54//26 53//26
f 53//27 54//27 56//27 55//27
f 55//28 56//28 58//28 57//28
f 57//29 58//29 60//29 59//29
f 59//30 60//30 62//30 61//30
f 4//31 2//31 64//31 62//31 60//31 58//31 56//31 54//31 52//31 50//31 48//31 46//31 44//31 42//31 40//31 38//31 36//31 34//31 32//31 30//31 28//31 26//31 24//31 22//31 20//31 18//31 16//31 14//31 12//31 10//31 8//31 6//31
f 61//32 62//32 64//32 63//32
f 63//33 64//33 2//33 1//33
f 1//34 3//34 5//34 7//34 9//34 11//34 13//34 15//34 17//34 19//34 21//34 23//34 25//34 27//34 29//34 31//34 33//34 35//34 37//34 39//34 41//34 43//34 45//34 47//34 49//34 51//34 53//34 55//34 57//34 59//34 61//34 63//34
usemtl Material.003
f 65//35 66//35 68//35 67//35
f 67//31 68//31 72//31 71//31
f 71//36 72//36 70//36 69//36
f 69//34 70//34 66//34 65//34
f 67//37 71//37 69//37 65//37
f 72//38 68//38 66//38 70//38
